PathFileType  4	(X/Y/Z) C:\Users\antoi\Documents\MyRepositories\mobilecap\ResultsAnalysis
DataRate	CameraRate	NumFrames	NumMarkers	Units	OrigDataRate	OrigDataStartFrame	OrigNumFrames
100.0	100.0	4	51	mm	100.0	136	271
Frame#	Time	r_knee			r_shank_antsup			r_ankle			r_calc			r_5meta			r_toe			L_knee			L_shank_antsup			L_ankle			L_calc			L_5meta			L_toe			r_sh2			r_sh3			r_sh4			L_sh2			L_sh3			r_thigh1			r_thigh2			r_thigh3			r_thigh4			r_thigh5			L_thigh1			L_thigh2			L_thigh3			L_thigh4			r.ASIS			r.PSIS			L.ASIS			L.PSIS			C7			R_Shoulder			L_Shoulder			R_Sternum			L_Sternum			R_humerus			R_elbow_med			R_elbow_lat			R_forearm			R_wrist_radius			R_wrist_ulna			L_humerus			L_elbow_med			L_elbow_lat			L_forearm			L_wrist_radius			L_wrist_ulna			R_HJC			L_HJC			R_HJC_reg			L_HJC_reg			
		X1	Y1	Z1	X2	Y2	Z2	X3	Y3	Z3	X4	Y4	Z4	X5	Y5	Z5	X6	Y6	Z6	X7	Y7	Z7	X8	Y8	Z8	X9	Y9	Z9	X10	Y10	Z10	X11	Y11	Z11	X12	Y12	Z12	X13	Y13	Z13	X14	Y14	Z14	X15	Y15	Z15	X16	Y16	Z16	X17	Y17	Z17	X18	Y18	Z18	X19	Y19	Z19	X20	Y20	Z20	X21	Y21	Z21	X22	Y22	Z22	X23	Y23	Z23	X24	Y24	Z24	X25	Y25	Z25	X26	Y26	Z26	X27	Y27	Z27	X28	Y28	Z28	X29	Y29	Z29	X30	Y30	Z30	X31	Y31	Z31	X32	Y32	Z32	X33	Y33	Z33	X34	Y34	Z34	X35	Y35	Z35	X36	Y36	Z36	X37	Y37	Z37	X38	Y38	Z38	X39	Y39	Z39	X40	Y40	Z40	X41	Y41	Z41	X42	Y42	Z42	X43	Y43	Z43	X44	Y44	Z44	X45	Y45	Z45	X46	Y46	Z46	X47	Y47	Z47	X48	Y48	Z48	X49	Y49	Z49	X50	Y50	Z50	X51	Y51	Z51	

136	1.35000000	-412.02810	685.72664	-423.10885	-363.26639	635.75306	-422.27432	-337.82693	298.75780	-395.32205	-397.55038	288.54075	-440.98920	-249.94490	210.90322	-379.04207	-204.52638	226.09125	-428.73528	-411.61818	675.96135	-796.73553	-350.81383	608.66506	-795.01245	-334.35184	298.89539	-843.26944	-392.05682	281.58958	-791.19579	-250.77906	201.29390	-855.40863	-193.50264	217.42558	-812.02841	-350.10491	526.51915	-397.58560	-433.45840	635.48435	-393.62599	-427.59452	517.82149	-376.24718	-432.96585	612.36715	-832.15815	-410.43949	493.59675	-857.66643	-447.67593	940.14078	-407.53925	-406.45651	833.55791	-414.86340	-510.97638	789.75534	-426.24048	-553.59846	897.96314	-415.58200	-459.74900	789.03643	-405.72163	-476.08787	949.98499	-809.12559	-421.20612	822.17012	-804.03840	-579.53363	908.77643	-796.96025	-524.95307	780.65097	-777.55913	-439.64594	1105.10501	-509.13619	-629.78997	1178.54094	-567.44066	-453.14545	1100.43431	-716.07251	-633.29340	1174.92600	-645.68749	-347.99674	1545.40068	-613.94458	-306.12577	1498.68179	-478.42761	-304.83129	1500.69567	-749.51323	-259.53907	1439.37947	-586.46999	-261.04244	1439.25311	-625.54898	-340.94406	1428.50679	-381.84229	-546.28554	1374.54049	-310.30609	-500.66534	1372.15072	-259.15299	-486.09599	1277.96115	-234.88198	-522.50437	1140.14042	-206.00740	-536.94652	1154.39919	-172.08998	-366.20399	1441.58364	-836.33189	-577.80548	1358.62706	-849.37602	-541.82038	1357.34180	-906.19789	-560.94446	1253.48165	-937.04632	-609.56357	1135.68282	-946.24879	-639.91341	1154.67096	-967.64873	-535.07294	1038.24988	-500.84871	-547.10635	1035.08314	-707.98271	-523.95119	1060.42449	-531.26791	-530.06825	1054.11326	-667.88841	
137	1.36000000	-397.55356	667.19447	-423.11500	-347.41939	617.59153	-423.18928	-320.53336	280.53386	-395.50563	-380.19373	270.01047	-440.80487	-232.11252	193.01636	-379.05856	-186.88477	208.75479	-429.17469	-396.50805	657.82317	-798.51793	-334.77822	590.58929	-795.40117	-315.24298	281.08007	-844.86652	-373.23125	263.14850	-793.41977	-230.38516	184.46527	-856.87132	-173.78343	200.87167	-812.42469	-333.53259	508.48120	-398.05967	-418.47516	616.04938	-394.00418	-410.99829	499.36610	-376.01495	-416.43716	593.84942	-833.64619	-392.48392	475.51756	-859.58668	-435.43022	921.34263	-408.10140	-392.40806	816.00068	-415.75510	-497.53594	770.31478	-425.98473	-541.16369	878.30519	-415.15606	-446.22879	770.24945	-405.68565	-463.39747	931.40802	-809.53400	-407.54971	804.04679	-804.70280	-566.76046	889.35938	-798.74222	-511.04464	761.49974	-779.35016	-428.98446	1085.47224	-509.79434	-619.18996	1158.31173	-568.17026	-442.29264	1080.68356	-716.72732	-622.59785	1154.56228	-646.43514	-338.19468	1525.62843	-614.68019	-296.77953	1478.88519	-478.78053	-295.49263	1480.47778	-750.42031	-249.85378	1419.41499	-586.99371	-251.05159	1419.07076	-626.39009	-331.30096	1408.93365	-382.02016	-536.27206	1354.78027	-310.01129	-490.57708	1352.04493	-259.60388	-476.85653	1258.21369	-234.08407	-514.97596	1120.87645	-203.64667	-529.28502	1135.67635	-170.01857	-358.23449	1421.01833	-835.56380	-569.82876	1339.73237	-846.08324	-535.15832	1337.67240	-902.95603	-555.94727	1234.03483	-933.26246	-607.22813	1117.04332	-941.05694	-637.06346	1137.15649	-963.29899	-524.11953	1018.30947	-501.50560	-536.03408	1015.02731	-708.64479	-513.14468	1040.65350	-531.94735	-519.09306	1034.10819	-668.55564	
138	1.37000000	-382.16180	647.93212	-423.14347	-331.24133	598.43742	-423.59186	-305.07186	261.02232	-395.83842	-364.31573	250.68163	-441.58676	-216.79770	173.25968	-378.78758	-171.10906	188.97352	-428.42255	-380.90681	638.81436	-799.96179	-318.51800	571.38797	-795.81382	-298.03913	261.91508	-845.95539	-356.10875	243.36338	-794.83564	-212.15354	166.34221	-858.63640	-156.12155	182.74279	-813.14645	-317.38597	489.16527	-398.44528	-402.84245	596.23745	-394.45183	-395.27024	480.03539	-376.47130	-399.69798	574.67753	-835.03072	-375.08662	456.67555	-861.37025	-423.24844	901.76886	-408.30350	-378.63823	796.83659	-415.72702	-483.36637	749.73868	-426.14629	-528.52450	857.34674	-414.85217	-432.12418	750.46253	-405.55098	-450.20457	911.86622	-810.02040	-393.35168	784.97200	-805.34616	-553.49445	868.78196	-800.10847	-496.63230	741.37998	-780.83423	-418.38681	1065.04931	-510.27805	-608.66759	1137.02222	-568.85522	-431.35184	1060.20930	-717.45629	-611.95242	1133.03562	-647.25994	-328.80312	1504.96504	-615.38134	-287.49615	1458.27580	-479.20922	-286.77955	1459.79347	-750.97284	-240.36642	1398.60037	-587.65243	-241.26791	1398.01834	-627.23930	-321.55542	1388.37721	-382.28020	-526.02492	1333.49575	-309.61065	-480.31871	1330.87636	-259.69955	-466.81470	1237.43303	-233.11324	-505.79613	1100.35461	-201.04685	-520.03614	1115.86677	-167.61811	-350.32010	1400.06123	-834.93657	-561.35079	1318.89708	-842.96282	-527.72803	1316.45636	-900.27606	-549.84690	1212.97856	-930.04596	-603.46238	1096.77908	-936.55735	-633.02282	1117.48018	-958.89854	-513.07362	997.40845	-502.17538	-524.74346	994.05682	-709.32741	-502.32376	1020.07812	-532.47208	-508.05340	1013.12438	-669.21750	
139	1.38000000	-365.86538	627.87700	-423.09437	-314.90513	578.17032	-423.23304	-291.42599	240.47046	-396.24659	-350.09143	230.57727	-443.07585	-203.95732	151.93632	-378.50839	-157.66881	167.20048	-427.35780	-364.69223	618.81783	-800.68190	-302.04652	551.11855	-796.27425	-282.63907	241.49132	-846.58302	-340.66783	222.76621	-795.55029	-196.40916	146.39344	-859.49910	-140.49752	162.89672	-813.96849	-301.88585	468.54468	-398.56969	-386.22090	576.89332	-394.67381	-380.04635	460.02262	-377.19524	-382.91023	554.86766	-836.17912	-358.70661	436.81743	-862.51755	-411.02876	881.28258	-408.27892	-365.38453	776.12593	-414.93482	-468.47771	728.15261	-426.63906	-515.65455	835.07859	-414.95667	-417.48035	729.63402	-405.53240	-436.63106	891.42719	-810.71782	-378.57586	765.08315	-806.06626	-539.62441	847.13817	-801.45950	-481.67180	720.28596	-782.17000	-407.85613	1043.63095	-510.76091	-598.33566	1114.58308	-569.78126	-420.52051	1038.76614	-718.13599	-601.57987	1110.31927	-648.54337	-319.81487	1483.30921	-615.88725	-278.33940	1436.77522	-479.71192	-278.61256	1438.43362	-751.31715	-231.12340	1376.74453	-588.31910	-231.91697	1376.17172	-627.54788	-311.74672	1366.87765	-382.56179	-515.39710	1310.60240	-309.31086	-469.73650	1308.67713	-259.17541	-455.96229	1215.51097	-232.09636	-495.22324	1078.55262	-198.65616	-509.35212	1094.67718	-165.19865	-342.37052	1378.68184	-834.85798	-552.59188	1296.28850	-840.51960	-519.66164	1293.75241	-898.20461	-542.64812	1190.38013	-927.64228	-597.95349	1074.80206	-933.48248	-627.25995	1095.84910	-955.94398	-502.17934	975.48021	-502.96391	-513.40386	971.96963	-710.13758	-491.49418	998.51702	-532.89878	-497.13086	991.10986	-669.74232	
